<svg xmlns="http://www.w3.org/2000/svg" width="170" height="50" viewBox="0 0 170 50">
  <defs>
    <style>
      .cls-1 {
        fill: #0138b0;
        fill-rule: evenodd;
      }
    </style>
  </defs>
  <path id="LOGO" class="cls-1" d="M126.827,119.316a4.247,4.247,0,0,1,1.813.391,4.684,4.684,0,0,1,1.47,1.065,5.069,5.069,0,0,1,1.341,3.448,4.761,4.761,0,0,1-.357,1.847,4.66,4.66,0,0,1-.984,1.5,4.571,4.571,0,0,1-1.47,1,4.514,4.514,0,0,1-1.813.364,4.764,4.764,0,0,1-1.847-.364,4.862,4.862,0,0,1-1.536-1,4.744,4.744,0,0,1-1.045-1.5,4.47,4.47,0,0,1-.384-1.847,4.711,4.711,0,0,1,.384-1.882,5.073,5.073,0,0,1,1.045-1.566,4.967,4.967,0,0,1,1.536-1.065,4.48,4.48,0,0,1,1.847-.391h0Zm0,2.445a2.2,2.2,0,0,0-.923.2,2.533,2.533,0,0,0-.769.536,2.576,2.576,0,0,0-.525.783,2.357,2.357,0,0,0,0,1.882,2.508,2.508,0,0,0,.525.776,2.621,2.621,0,0,0,.769.529,2.217,2.217,0,0,0,.923.2,2,2,0,0,0,.89-0.2,2.316,2.316,0,0,0,.7-0.529,2.341,2.341,0,0,0,.458-0.776,2.814,2.814,0,0,0,0-1.882,2.4,2.4,0,0,0-.458-0.783,2.244,2.244,0,0,0-.7-0.536A1.984,1.984,0,0,0,126.827,121.761Zm11.224-2.472a4.25,4.25,0,0,1,1.813.391,4.684,4.684,0,0,1,1.47,1.065,5.082,5.082,0,0,1,1.341,3.448,4.743,4.743,0,0,1-.358,1.847,4.7,4.7,0,0,1-.983,1.5,4.587,4.587,0,0,1-1.47,1,4.517,4.517,0,0,1-1.813.364,4.761,4.761,0,0,1-1.847-.364,4.9,4.9,0,0,1-1.537-1,4.78,4.78,0,0,1-1.044-1.5,4.47,4.47,0,0,1-.384-1.847,4.711,4.711,0,0,1,.384-1.882,5.076,5.076,0,0,1,1.044-1.566,4.983,4.983,0,0,1,1.537-1.065,4.477,4.477,0,0,1,1.847-.391h0Zm0,2.445a2.2,2.2,0,0,0-.923.2,2.521,2.521,0,0,0-.769.536,2.6,2.6,0,0,0-.526.783,2.366,2.366,0,0,0,0,1.881,2.521,2.521,0,0,0,.526.777,2.587,2.587,0,0,0,.769.528,2.2,2.2,0,0,0,.923.2,1.985,1.985,0,0,0,.89-0.2,2.309,2.309,0,0,0,.7-0.528,2.353,2.353,0,0,0,.458-0.777,2.811,2.811,0,0,0,0-1.881,2.423,2.423,0,0,0-.458-0.783,2.255,2.255,0,0,0-.7-0.536A1.984,1.984,0,0,0,138.051,121.734Zm-22.623-2.459a3.345,3.345,0,0,1,.674.069,5.514,5.514,0,0,1,.647.171,4.477,4.477,0,0,1,.587.241,4.06,4.06,0,0,1,.478.274v-3.021h2.413v7.17a4.445,4.445,0,0,1-.391,1.854,4.886,4.886,0,0,1-1.044,1.5,4.825,4.825,0,0,1-1.524,1,4.708,4.708,0,0,1-1.84.364,4.592,4.592,0,0,1-3.3-1.367,4.782,4.782,0,0,1-1.354-3.358,4.928,4.928,0,0,1,.364-1.882,5.013,5.013,0,0,1,.99-1.559,4.817,4.817,0,0,1,1.477-1.065,4.236,4.236,0,0,1,1.819-.4h0Zm0,2.459a2.092,2.092,0,0,0-.9.192,2.187,2.187,0,0,0-.708.522,2.416,2.416,0,0,0-.465.776,2.691,2.691,0,0,0-.168.955,2.654,2.654,0,0,0,.168.941,2.517,2.517,0,0,0,.465.783,2.224,2.224,0,0,0,.708.535,2.026,2.026,0,0,0,.9.2,2.131,2.131,0,0,0,.9-0.2,2.556,2.556,0,0,0,.761-0.535,2.6,2.6,0,0,0,.526-0.783,2.329,2.329,0,0,0,.195-0.941,2.361,2.361,0,0,0-.195-0.955,2.5,2.5,0,0,0-1.287-1.3A2.2,2.2,0,0,0,115.428,121.734Zm-6.438-1.874V128.9h-2.224V119.86h2.224Zm-6.438,4.333a2.5,2.5,0,0,0-.708-1.738,2.659,2.659,0,0,0-.768-0.543,2.173,2.173,0,0,0-1.847,0,2.625,2.625,0,0,0-1.3,1.333,2.3,2.3,0,0,0-.2.948V128.9H95.542v-4.711a2.3,2.3,0,0,0-.2-0.948,2.626,2.626,0,0,0-1.3-1.333,2.148,2.148,0,0,0-.923-0.206,2.106,2.106,0,0,0-.917.206,2.7,2.7,0,0,0-.762.543,2.5,2.5,0,0,0-.708,1.738V128.9H88.492v-4.711a5.056,5.056,0,0,1,.357-1.9,4.916,4.916,0,0,1,.984-1.559A4.743,4.743,0,0,1,91.3,119.68a4.249,4.249,0,0,1,1.813-.391,3.969,3.969,0,0,1,1.975.48,6.5,6.5,0,0,1,1.544,1.209,5.9,5.9,0,0,1,.748-0.666,5.5,5.5,0,0,1,.87-0.536,5.2,5.2,0,0,1,.937-0.357,3.647,3.647,0,0,1,.963-0.13,4.477,4.477,0,0,1,1.847.391,5.027,5.027,0,0,1,2.588,2.617,4.668,4.668,0,0,1,.391,1.9V128.9h-2.426v-4.711Zm5.326-7.184a1.133,1.133,0,1,1-1.112,1.133A1.123,1.123,0,0,1,107.878,117.009Zm65.73-16.765V83.784c0-1.221,1.065-1.9,2.789-1.829,1.739,0.069,2.8.808,2.8,2.037v16.252h18.535c1.469,0,2.4,1.078,2.4,2.843s-0.931,2.843-2.4,2.843H182.182A100.266,100.266,0,0,0,198.727,123.2c1.461,1.223,1.527,2.709,0,4.265a3.056,3.056,0,0,1-4.381.408,67.122,67.122,0,0,1-15.15-15.646v16.66c0,1.366-1.058,2.236-2.8,2.236s-2.789-.868-2.789-2.236V112.024a73.208,73.208,0,0,1-14.351,15.645c-1.838,1.52-3.731,1.633-5.189,0-1.216-1.362-.624-2.934,1.2-4.473,7.482-6.313,12.5-12.117,15.15-17.266H155.472a2.855,2.855,0,0,1,0-5.686h18.136ZM163.842,97.8a2.915,2.915,0,0,0,4.185,1.023c1.546-.956,1.694-2.537.6-4.273-0.355-.561-0.527-0.745-0.391-0.606a104.173,104.173,0,0,0-6.584-8.738c-1.012-1.132-2.381-1.16-3.785,0-1.388,1.148-1.569,2.468-.6,3.658,2.224,2.745,4.355,5.759,6.584,8.936h0Zm20.935-2.843c-0.953,1.618-.774,2.977.6,3.866a2.9,2.9,0,0,0,4.185-.616,37.108,37.108,0,0,0,5.384-8.936,2.792,2.792,0,0,0-1.4-3.858,2.6,2.6,0,0,0-3.785,1.014c-1.187,2.1-2.328,4.406-3.794,6.7-0.522.817-.944,1.412-1.19,1.829h0Zm26.248-1.829a43.031,43.031,0,0,0,11.56-8.33,2.083,2.083,0,0,0,.4-0.607,4.424,4.424,0,0,1,3-1.621,3.235,3.235,0,0,1,2.79,1.82H248.1c2.79,0.277,3.326,2.167,1.6,5.695q-3.189,6.085-10.964,11.373H250.1q4.581,0,4.185,4.065-1,11.168-8.37,17.673a30.7,30.7,0,0,1-12.164,5.687q-6.775,1.624-19.139,1.629c-2.263-.139-3.454-1.153-3.59-3.051,0.263-1.621,1.531-2.5,3.785-2.635a72.773,72.773,0,0,0,11.968-.407,41.071,41.071,0,0,0,8.567-2.037,96.208,96.208,0,0,0-9.766-7.108,39.471,39.471,0,0,1-10.565,4.672c-1.726.408-2.858-.139-3.394-1.621-0.4-1.768.136-2.982,1.6-3.658a40.922,40.922,0,0,0,14.154-7.523,53.089,53.089,0,0,1-14.759,3.051,2.637,2.637,0,0,1-3.189-2.436c-0.128-1.759.731-2.783,2.594-3.051a53.623,53.623,0,0,0,14.555-3.25q-3.981-3.043-7.775-5.487a2.072,2.072,0,0,1-.8.407,15.151,15.151,0,0,1-4.78,2.444c-1.864.537-3.122,0-3.794-1.63a3.224,3.224,0,0,1,1.6-4.065h0Zm21.529,5.7a34.25,34.25,0,0,0,8.974-6.908c0.664-.676.928-1.153,0.8-1.422a1.536,1.536,0,0,0-1.4-.407H225.979l-2.39,2.237a30.567,30.567,0,0,1,2.79,2.028c2.918,2.028,4.985,3.519,6.175,4.472h0Zm8.575,20.716A16.8,16.8,0,0,0,247.7,109.38c0.536-1.214.2-1.829-1-1.829h-12.36l-4.185,3.866A129.977,129.977,0,0,1,241.129,119.539Zm-125.4-4.963c11.393-24.51,28.51-12.886,26.985-.167l0.017-.019c0.1,0.283.28,0.1,0.28,0.1l0,0.006A14.965,14.965,0,0,0,124.08,95.3c-6.313-18.454-31.936-18.5-39.76-2.372,0,0-.055.274,0.252,0.159,16.125-16.329,42.114-4.036,29.506,20.677l2.1-2.22ZM128.52,83.315a3.911,3.911,0,1,1-3.9,3.911A3.905,3.905,0,0,1,128.52,83.315Z" transform="translate(-84.313 -81.125)"/>
</svg>
